<svg width="15" height="13" viewBox="0 0 15 13" fill="none" xmlns="http://www.w3.org/2000/svg">
<path d="M6.71342 12.4999C6.67221 12.4999 6.63145 12.4913 6.5937 12.4748C6.55595 12.4583 6.52202 12.4342 6.49406 12.4039L0.579369 6.0059C0.53994 5.96325 0.513801 5.91003 0.504151 5.85275C0.494502 5.79547 0.50176 5.73662 0.525037 5.6834C0.548314 5.63018 0.586601 5.58491 0.635212 5.55311C0.683823 5.52131 0.740648 5.50438 0.798734 5.50438H3.64574C3.68848 5.50438 3.73073 5.51356 3.76963 5.53128C3.80853 5.549 3.84317 5.57486 3.87123 5.60712L5.84794 7.88125C6.06157 7.4246 6.47512 6.66424 7.20082 5.73772C8.27366 4.368 10.2692 2.35355 13.6833 0.535057C13.7493 0.499917 13.8261 0.490796 13.8985 0.509497C13.9709 0.528198 14.0336 0.57336 14.0743 0.636066C14.115 0.698772 14.1307 0.774464 14.1184 0.848195C14.106 0.921926 14.0664 0.988336 14.0075 1.03431C13.9944 1.0445 12.6781 2.08113 11.1631 3.9799C9.7688 5.72724 7.91535 8.5844 7.00332 12.273C6.9873 12.3378 6.95004 12.3953 6.89748 12.4365C6.84491 12.4776 6.78009 12.5 6.71333 12.5L6.71342 12.4999Z" fill="white"/>
</svg>
